<?xml version="1.0" encoding="iso-8859-1"?>
<!-- Generator: Adobe Illustrator 19.0.0, SVG Export Plug-In . SVG Version: 6.00 Build 0)  -->
<svg version="1.1" id="Capa_1" xmlns="http://www.w3.org/2000/svg" xmlns:xlink="http://www.w3.org/1999/xlink" x="0px" y="0px"
	 viewBox="0 0 56 56" style="enable-background:new 0 0 56 56;" xml:space="preserve">
<g>
	<g>
	</g>
	<g>
		<path d="M12,18c0,3.309,2.691,6,6,6s6-2.691,6-6s-2.691-6-6-6S12,14.691,12,18z M22,18c0,2.206-1.794,4-4,4s-4-1.794-4-4
			s1.794-4,4-4S22,15.794,22,18z"/>
		<polygon points="16,32 17,32 17,40 19,40 19,32 20,32 20,30 16,30 		"/>
		<path d="M52,0H31c-2.206,0-4,1.794-4,4v19.769L21.795,26h-7.433l-5.519-4.599l-2.907-7.752c-0.179-0.477-0.688-0.741-1.179-0.619
			l-4,1c-0.27,0.067-0.5,0.245-0.634,0.489c-0.134,0.245-0.16,0.533-0.072,0.798l3,9c0.049,0.147,0.132,0.281,0.242,0.391L11,32.414
			v7.935c-1.695,0.603-3.05,1.956-3.653,3.689C4.345,44.364,2,46.912,2,50c0,1.035,0.263,2.009,0.726,2.86l-1.433,1.433
			C1.105,54.48,1,54.735,1,55v1h2v-0.586l0.976-0.976C5.042,55.405,6.451,56,8,56c2.086,0,3.924-1.071,5-2.69
			c1.076,1.62,2.914,2.69,5,2.69s3.924-1.071,5-2.69c1.076,1.62,2.914,2.69,5,2.69s3.924-1.071,5-2.69c1.076,1.62,2.914,2.69,5,2.69
			s3.924-1.071,5-2.69c1.076,1.62,2.914,2.69,5,2.69c1.549,0,2.958-0.595,4.024-1.562L53,55.414V56h2v-1
			c0-0.265-0.105-0.52-0.293-0.707l-1.433-1.433C53.737,52.009,54,51.035,54,50c0-3.191-2.506-5.801-5.652-5.982
			C47.515,41.652,45.265,40,42.7,40c-2.03,0-3.857,1.041-4.95,2.642C36.658,41.041,34.83,40,32.8,40c-2.03,0-3.857,1.041-4.95,2.643
			c-0.697-1.022-1.688-1.818-2.85-2.255v-7.769l2.289-1.145C27.878,32.95,29.316,34,31,34h21c2.206,0,4-1.794,4-4V4
			C56,1.794,54.206,0,52,0z M13,42c1.525,0,2.878,0.879,3.549,2.185C15.077,44.553,13.817,45.46,13,46.69
			c-0.817-1.23-2.077-2.138-3.549-2.506C10.122,42.879,11.475,42,13,42z M8,54c-2.206,0-4-1.794-4-4s1.794-4,4-4s4,1.794,4,4
			S10.206,54,8,54z M18,54c-2.206,0-4-1.794-4-4s1.794-4,4-4s4,1.794,4,4S20.206,54,18,54z M28,54c-2.206,0-4-1.794-4-4s1.794-4,4-4
			s4,1.794,4,4S30.206,54,28,54z M38,54c-2.206,0-4-1.794-4-4s1.794-4,4-4s4,1.794,4,4S40.206,54,38,54z M52,50c0,2.206-1.794,4-4,4
			s-4-1.794-4-4s1.794-4,4-4S52,47.794,52,50z M42.7,42c1.552,0,2.925,0.909,3.584,2.253C44.925,44.66,43.768,45.534,43,46.69
			c-0.867-1.305-2.228-2.253-3.816-2.572C39.867,42.849,41.201,42,42.7,42z M32.8,42c1.543,0,2.91,0.899,3.572,2.23
			c-1.396,0.395-2.588,1.279-3.372,2.46c-0.85-1.28-2.177-2.215-3.726-2.551C29.953,42.858,31.293,42,32.8,42z M26.46,44.208
			c-1.434,0.382-2.66,1.277-3.46,2.483c-0.834-1.255-2.127-2.176-3.638-2.528C20.038,42.868,21.384,42,22.9,42
			C24.434,42,25.793,42.889,26.46,44.208z M23.553,31.105C23.214,31.275,23,31.621,23,32v8.009C22.966,40.008,22.934,40,22.9,40
			c-2.03,0-3.857,1.041-4.95,2.643C16.857,41.041,15.03,40,13,40v-8c0-0.265-0.105-0.52-0.293-0.707L4.874,23.46L2.29,15.708
			l2.087-0.521l2.687,7.165c0.061,0.163,0.163,0.306,0.296,0.417l6,5C13.54,27.918,13.766,28,14,28h8
			c0.135,0,0.27-0.027,0.394-0.081l7-3c0.093-0.04,0.18-0.094,0.257-0.16l6.297-5.397L37.586,21l-6.178,6.178L23.553,31.105z M54,30
			c0,1.103-0.897,2-2,2H31c-0.903,0-1.659-0.605-1.907-1.428l3.354-1.677c0.096-0.048,0.184-0.111,0.26-0.188l7-7
			c0.391-0.391,0.391-1.023,0-1.414l-3-3c-0.371-0.371-0.961-0.392-1.358-0.052L29,22.683V4c0-1.103,0.897-2,2-2h21
			c1.103,0,2,0.897,2,2V30z"/>
		<path d="M51,5H41c-0.552,0-1,0.448-1,1v4c0,0.552,0.448,1,1,1h4v2.5l-3.6,2.7C41.148,16.389,41,16.685,41,17s0.148,0.611,0.4,0.8
			l3.6,2.7V23h-3c-0.379,0-0.725,0.214-0.895,0.553l-2,4c-0.155,0.31-0.138,0.678,0.044,0.973C39.332,28.82,39.653,29,40,29h9
			c0.379,0,0.725-0.214,0.895-0.553l2-4c0.155-0.31,0.138-0.678-0.044-0.973C51.668,23.18,51.347,23,51,23h-4v-2.5l3.6-2.7
			c0.252-0.188,0.4-0.485,0.4-0.8s-0.148-0.611-0.4-0.8L47,13.5V11h4c0.552,0,1-0.448,1-1V6C52,5.448,51.552,5,51,5z M48.382,27
			h-6.764l1-2h6.764L48.382,27z M46,18.75L43.667,17L46,15.25L48.333,17L46,18.75z M50,9h-8V7h8V9z"/>
		<path d="M6,10h0.5l2.7,3.6C9.392,13.856,9.691,14,10,14c0.105,0,0.212-0.017,0.316-0.051C10.725,13.812,11,13.431,11,13v-3h6
			c1.654,0,3-1.346,3-3V3c0-1.654-1.346-3-3-3H6C4.346,0,3,1.346,3,3v4C3,8.654,4.346,10,6,10z M5,3c0-0.551,0.449-1,1-1h11
			c0.551,0,1,0.449,1,1v4c0,0.551-0.449,1-1,1h-7C9.448,8,9,8.448,9,9v1L7.8,8.4C7.611,8.148,7.315,8,7,8H6C5.449,8,5,7.551,5,7V3z"
			/>
		<rect x="7" y="4" width="9" height="2"/>
		<rect x="31" y="5" width="7" height="2"/>
		<rect x="31" y="9" width="7" height="2"/>
		<rect x="31" y="13" width="7" height="2"/>
		<rect x="54" y="36" width="2" height="2"/>
		<rect x="50" y="36" width="2" height="2"/>
		<rect x="46" y="36" width="2" height="2"/>
	</g>
</g>
<g>
</g>
<g>
</g>
<g>
</g>
<g>
</g>
<g>
</g>
<g>
</g>
<g>
</g>
<g>
</g>
<g>
</g>
<g>
</g>
<g>
</g>
<g>
</g>
<g>
</g>
<g>
</g>
<g>
</g>
</svg>
