<?xml version="1.0" encoding="iso-8859-1"?>
<!-- Generator: Adobe Illustrator 19.0.0, SVG Export Plug-In . SVG Version: 6.00 Build 0)  -->
<svg version="1.1" id="Layer_1" xmlns="http://www.w3.org/2000/svg" xmlns:xlink="http://www.w3.org/1999/xlink" x="0px" y="0px"
	 viewBox="0 0 512.002 512.002" style="enable-background:new 0 0 512.002 512.002;" xml:space="preserve">
<g>
	<g>
		<g>
			<path d="M476.355,42.959c-9.248-8.633-21.323-12.901-33.988-12.034c-8.469,0.583-16.293,3.509-22.837,8.13L285.444,22.651V10.626
				C285.444,4.757,280.687,0,274.818,0H162.181c-17.578,0-31.878,14.301-31.878,31.878v18.418c0,10.733,2.539,20.879,7.027,29.892
				l-0.999,16.497c-1.419,23.444-11.984,44.815-29.75,60.179s-40.437,22.738-63.842,20.758l-9.924-0.838
				c-5.857-0.503-10.988,3.847-11.483,9.694c-0.494,5.848,3.847,10.988,9.694,11.483l9.923,0.838
				c3.108,0.264,6.202,0.393,9.284,0.393c25.82,0,50.475-9.153,70.247-26.252c20.615-17.827,33.442-42.151,36.534-69.004
				c6.863,5.206,14.749,9.124,23.302,11.399l41.824,133.272l-39.481,39.481c-16.028,16.028-21.529,38.643-16.533,59.209h-15.17
				c-5.869,0-10.626,4.757-10.626,10.626v42.504h-13.283c-5.869,0-10.626,4.757-10.626,10.626v90.322
				c0,5.869,4.757,10.626,10.626,10.626h223.148c5.869,0,10.626-4.757,10.626-10.626v-90.322c0-5.869-4.757-10.626-10.626-10.626
				h-13.283v-42.504c0-5.869-4.757-10.626-10.626-10.626h-25.509l15.33-15.33c24.444-24.444,24.444-64.219,0-88.663
				c-8.774-8.773-19.524-14.379-30.831-16.855L250.7,116.26c3.288-0.812,6.434-1.981,9.401-3.463l22.199,17.49
				c16.359,12.888,35.912,19.229,55.393,19.229c23.195,0,46.283-8.996,63.709-26.64l12.266-12.419v22.9
				c0,13.852,8.884,25.664,21.252,30.051v0.234c0,13.354,8.254,24.816,19.928,29.554l-2.726,18.676
				c-0.848,5.807,3.173,11.202,8.98,12.049c0.521,0.077,1.037,0.113,1.548,0.113c5.189,0,9.729-3.806,10.501-9.093l4.162-28.513
				c0.445-3.054-0.458-6.15-2.477-8.485c-2.019-2.335-4.952-3.676-8.038-3.676c-5.859,0-10.626-4.767-10.626-10.626v-0.234
				c12.368-4.386,21.252-16.197,21.252-30.051v-25.406c8.459-8.439,13.283-20.007,13.283-31.975
				C490.705,63.506,485.475,51.472,476.355,42.959z M339.572,421.678v69.07H137.676v-23.909h55.41
				c5.869,0,10.626-4.757,10.626-10.626c0-5.869-4.757-10.626-10.626-10.626h-55.41v-23.909H339.572z M315.663,368.548v31.878
				H161.585v-31.878H315.663z M301.083,258.331c7.826,7.827,12.137,18.234,12.137,29.304s-4.311,21.476-12.138,29.304
				l-30.358,30.358h-82.42c-1.803-4.684-2.751-9.706-2.751-14.877c0-11.069,4.311-21.476,12.138-29.304l44.785-44.785
				c7.827-7.827,18.234-12.138,29.304-12.138S293.256,250.504,301.083,258.331z M262.747,225.621
				c-8.012,1.156-15.838,3.864-22.996,8.116l-36.449-116.141h25.543L262.747,225.621z M264.192,71.904
				c0,13.476-10.964,24.44-24.44,24.44h-42.15c-25.389,0-46.046-20.656-46.046-46.047V31.878c0-5.859,4.767-10.626,10.626-10.626
				h102.01V71.904z M386.28,107.943c-24.451,24.756-63.499,27.183-90.829,5.65l-18.788-14.802c1.699-2.326,3.185-4.816,4.427-7.445
				l108.474,13.271L386.28,107.943z M400.459,73.35c-0.219,3.839,0.04,7.62,0.746,11.281L285.444,70.468V44.061l118.436,14.49
				C401.953,63.151,400.756,68.131,400.459,73.35z M461.836,93.462c-3.601,3.356-5.667,8.051-5.667,12.882v27.014
				c0,5.859-4.767,10.626-10.626,10.626s-10.626-4.767-10.626-10.626v-23.98c0-6.337-2.407-12.383-6.779-17.023
				c-4.547-4.825-6.842-11.145-6.463-17.795c0.672-11.769,10.402-21.623,22.152-22.432c0.576-0.04,1.15-0.06,1.72-0.06
				c6.093,0,11.829,2.248,16.305,6.427c4.901,4.575,7.599,10.782,7.599,17.482C469.453,82.675,466.748,88.884,461.836,93.462z"/>
			<path d="M269.594,298.947c5.859,0,10.626-4.767,10.626-10.626s-4.767-10.626-10.626-10.626c-5.859,0-10.626,4.768-10.626,10.626
				C258.968,294.18,263.735,298.947,269.594,298.947z"/>
			<path d="M202.295,69.423c5.859,0,10.626-4.767,10.626-10.626c0-5.859-4.767-10.626-10.626-10.626
				c-5.859,0-10.626,4.767-10.626,10.626C191.669,64.657,196.436,69.423,202.295,69.423z"/>
			<path d="M235.591,466.839h1.063c5.869,0,10.626-4.757,10.626-10.626c0-5.869-4.757-10.626-10.626-10.626h-1.063
				c-5.869,0-10.626,4.757-10.626,10.626C224.964,462.082,229.722,466.839,235.591,466.839z"/>
		</g>
	</g>
</g>
<g>
</g>
<g>
</g>
<g>
</g>
<g>
</g>
<g>
</g>
<g>
</g>
<g>
</g>
<g>
</g>
<g>
</g>
<g>
</g>
<g>
</g>
<g>
</g>
<g>
</g>
<g>
</g>
<g>
</g>
</svg>
